# xmcd
#
# Track frame offsets:
#	150
#	19664
#	33263
#	48996
#	67874
#	84761
#	103643
#	125556
#	140514
#	162536
#	179122
#
# Disc length: 2655 seconds
# Revision: 0
# Processed by: cddbd v1.5.2PL0 Copyright (c) Steve Scherf et al.
# Submitted via: dBpowerAMP V12.0
#
DISCID=8e0a5d0b
DTITLE=The Devil Makes Three - Stomp and Smash
DYEAR=2011
DGENRE=Country
TTITLE0=For Good Again
TTITLE1=Statesboro Blues
TTITLE2=This Life
TTITLE3=Tow
TTITLE4=Old Number 7
TTITLE5=Graveyard
TTITLE6=Never Learn
TTITLE7=They Call That Religion
TTITLE8=Do Wrong Right
TTITLE9=Black Irish
TTITLE10=Help Yourself
EXTD=
EXTT0=
EXTT1=
EXTT2=
EXTT3=
EXTT4=
EXTT5=
EXTT6=
EXTT7=
EXTT8=
EXTT9=
EXTT10=
PLAYORDER=
